<svg width="48" height="48" viewBox="0 0 48 48" fill="none" xmlns="http://www.w3.org/2000/svg">
<rect width="48" height="48" rx="24" fill="#1CACEE"/>
<path fill-rule="evenodd" clip-rule="evenodd" d="M16 22H15.998L16 32H18V22H16ZM18 34H16C14.897 34 14 33.103 14 32V22C14 20.897 14.897 20 16 20H18C19.103 20 20 20.897 20 22V32C20 33.103 19.103 34 18 34ZM27.5049 23.6924C27.6579 23.6924 27.8129 23.7054 27.9659 23.7294C29.3159 23.9504 30.3329 25.1964 30.3329 26.6294V32.0004H31.9999V26.5384C31.9999 24.0364 29.9819 22.0004 27.4999 22.0004C25.0189 22.0004 22.9999 24.0364 22.9999 26.5384V32.0004H24.6669V26.5384C24.6669 25.6994 25.0319 24.9074 25.6699 24.3654C26.1859 23.9274 26.8349 23.6924 27.5049 23.6924ZM31.9999 34.0004H30.3329C29.2309 34.0004 28.3329 33.1024 28.3329 32.0004V26.6294C28.3329 26.1724 28.0299 25.7664 27.6449 25.7044C27.3089 25.6464 27.0749 25.7964 26.9659 25.8884C26.7759 26.0504 26.6669 26.2874 26.6669 26.5384V32.0004C26.6669 33.1024 25.7699 34.0004 24.6669 34.0004H22.9999C21.8979 34.0004 20.9999 33.1024 20.9999 32.0004V26.5384C20.9999 22.9324 23.9159 20.0004 27.4999 20.0004C31.0839 20.0004 33.9999 22.9324 33.9999 26.5384V32.0004C33.9999 33.1024 33.1029 34.0004 31.9999 34.0004ZM17 15C16.448 15 16 15.448 16 16C16 16.552 16.448 17 17 17C17.552 17 18 16.552 18 16C18 15.448 17.552 15 17 15ZM17 19C15.346 19 14 17.654 14 16C14 14.346 15.346 13 17 13C18.654 13 20 14.346 20 16C20 17.654 18.654 19 17 19Z" fill="white"/>
</svg>
