<svg width="48" height="48" viewBox="0 0 48 48" fill="none" xmlns="http://www.w3.org/2000/svg">
<rect width="48" height="48" rx="24" fill="#F77A00"/>
<path fill-rule="evenodd" clip-rule="evenodd" d="M26 19C26 17.897 25.103 17 24 17C22.897 17 22 17.897 22 19C22 20.103 22.897 21 24 21C25.103 21 26 20.103 26 19ZM28 19C28 21.206 26.206 23 24 23C21.794 23 20 21.206 20 19C20 16.794 21.794 15 24 15C26.206 15 28 16.794 28 19ZM17 32C17 28.14 20.141 25 24 25C27.859 25 31 28.14 31 32C31 32.552 30.553 33 30 33C29.447 33 29 32.552 29 32C29 29.243 26.757 27 24 27C21.243 27 19 29.243 19 32C19 32.552 18.553 33 18 33C17.447 33 17 32.552 17 32Z" fill="white"/>
</svg>
