<svg width="48" height="48" viewBox="0 0 48 48" fill="none" xmlns="http://www.w3.org/2000/svg">
<rect width="48" height="48" rx="24" fill="#1CACEE"/>
<path fill-rule="evenodd" clip-rule="evenodd" d="M31.0156 18.6543V18.6563V18.6543ZM20.5126 29.9973C20.5366 29.9973 20.5626 29.9983 20.5866 30.0003C26.2816 29.9633 29.6806 25.6123 29.6806 21.4063C29.6806 21.0243 29.8766 20.7773 30.0506 20.5583C30.2086 20.3583 30.4536 20.0503 30.6716 19.6063C29.8786 19.5983 29.1706 19.2463 28.7586 18.7643C28.3276 18.3033 27.7086 18.0213 27.0406 18.0013C26.3966 17.9753 25.7396 18.2233 25.2516 18.6863C24.6016 19.3033 24.3236 20.2343 24.5256 21.1143L24.7866 22.2533L23.6206 22.3353C20.6046 22.5613 18.5146 21.2703 17.0796 19.9343C17.0856 21.9543 17.7566 24.6493 20.8066 26.3873L21.7646 26.9333L21.1276 27.8343C20.4646 28.7733 19.4666 29.3723 18.4506 29.7553C19.1216 29.9153 19.8116 29.9973 20.4996 29.9973H20.5116H20.5126ZM20.5126 32.0003C20.4866 32.0003 20.4586 31.9993 20.4326 31.9973C18.8296 31.9863 17.2216 31.6133 15.7776 30.9143C15.2346 30.6503 14.9276 30.0723 15.0146 29.4723C15.1026 28.8653 15.5686 28.3893 16.1726 28.2913C17.2176 28.1193 18.0846 27.8133 18.7126 27.4043C14.8356 24.5053 14.9376 20.1653 15.1886 18.3273C15.2626 17.7893 15.6456 17.3403 16.1636 17.1833C16.6896 17.0233 17.2346 17.1833 17.5946 17.5923C19.1306 19.3333 20.6656 20.2083 22.4656 20.3413C22.5176 19.1763 23.0136 18.0533 23.8746 17.2353C24.7516 16.4023 25.8986 15.9663 27.1026 16.0023C28.3076 16.0393 29.4256 16.5473 30.2496 17.4323C30.3336 17.5283 30.6476 17.7023 31.0266 17.5323C31.5236 17.3093 32.0886 17.3833 32.5006 17.7273C32.9116 18.0683 33.0866 18.6053 32.9586 19.1283C32.6356 20.4593 31.9976 21.3173 31.6756 21.7283C31.5076 26.8333 27.3596 32.0003 20.5126 32.0003Z" fill="white"/>
</svg>
