<svg width="48" height="48" viewBox="0 0 48 48" fill="none" xmlns="http://www.w3.org/2000/svg">
<rect width="48" height="48" rx="24" fill="#C8232C"/>
<path d="M20 32L24 23" stroke="white" stroke-width="2" stroke-linecap="round" stroke-linejoin="round"/>
<path d="M22.7 26C23.137 27.263 24.13 28 25.25 28C27.321 28 29 26.446 29 24C29.0009 23.2698 28.8418 22.5483 28.5339 21.8862C28.2261 21.2241 27.777 20.6374 27.2182 20.1675C26.6593 19.6975 26.0044 19.3556 25.2993 19.1659C24.5942 18.9762 23.8561 18.9432 23.1369 19.0692C22.4177 19.1953 21.7348 19.4773 21.1362 19.8955C20.5377 20.3137 20.038 20.8579 19.6723 21.4899C19.3066 22.1219 19.0838 22.8264 19.0194 23.5537C18.9551 24.281 19.0509 25.0136 19.3 25.7" stroke="white" stroke-width="2" stroke-linecap="round" stroke-linejoin="round"/>
<path d="M24 33C28.9706 33 33 28.9706 33 24C33 19.0294 28.9706 15 24 15C19.0294 15 15 19.0294 15 24C15 28.9706 19.0294 33 24 33Z" stroke="white" stroke-width="2" stroke-linecap="round" stroke-linejoin="round"/>
</svg>
