<svg width="40" height="40" viewBox="0 0 40 40" fill="none" xmlns="http://www.w3.org/2000/svg">
<rect opacity="0.08" width="40" height="40" rx="12" fill="#EB5857"/>
<path fill-rule="evenodd" clip-rule="evenodd" d="M15.0002 18.9993C15.0002 18.4473 15.4482 17.9993 16.0002 17.9993C16.5522 17.9993 17.0002 18.4473 17.0002 18.9993C17.0002 19.5513 16.5522 19.9993 16.0002 19.9993C15.4482 19.9993 15.0002 19.5513 15.0002 18.9993ZM20.0002 17.9993C19.4482 17.9993 19.0002 18.4473 19.0002 18.9993C19.0002 19.5513 19.4482 19.9993 20.0002 19.9993C20.5522 19.9993 21.0002 19.5513 21.0002 18.9993C21.0002 18.4473 20.5522 17.9993 20.0002 17.9993ZM24.0002 17.9993C23.4482 17.9993 23.0002 18.4473 23.0002 18.9993C23.0002 19.5513 23.4482 19.9993 24.0002 19.9993C24.5522 19.9993 25.0002 19.5513 25.0002 18.9993C25.0002 18.4473 24.5522 17.9993 24.0002 17.9993ZM27.8986 20.2942C27.3916 23.5482 24.7686 26.2472 21.5196 26.8562C19.9506 27.1522 18.3526 26.9832 16.9026 26.3692C16.4916 26.1952 16.0666 26.1072 15.6496 26.1072C15.4596 26.1072 15.2716 26.1252 15.0866 26.1622L12.2746 26.7242L12.8376 23.9072C12.9556 23.3222 12.8836 22.6962 12.6306 22.0972C12.0166 20.6472 11.8486 19.0502 12.1436 17.4802C12.7526 14.2312 15.4506 11.6082 18.7056 11.1012C21.2956 10.6982 23.8286 11.5142 25.6566 13.3422C27.4856 15.1712 28.3026 17.7052 27.8986 20.2942ZM27.0716 11.9282C24.7866 9.64417 21.6266 8.62517 18.3976 9.12417C14.3206 9.76017 10.9406 13.0442 10.1776 17.1112C9.8096 19.0692 10.0216 21.0632 10.7886 22.8762C10.8856 23.1072 10.9156 23.3222 10.8776 23.5152L10.0196 27.8032C9.9536 28.1312 10.0566 28.4702 10.2936 28.7062C10.4826 28.8962 10.7376 28.9992 11.0006 28.9992C11.0656 28.9992 11.1306 28.9932 11.1966 28.9802L15.4796 28.1232C15.7256 28.0762 15.9636 28.1452 16.1226 28.2112C17.9376 28.9782 19.9316 29.1892 21.8876 28.8222C25.9556 28.0592 29.2396 24.6792 29.8756 20.6022C30.3776 17.3752 29.3566 14.2132 27.0716 11.9282Z" fill="#EB5857"/>
</svg>
