<svg width="40" height="40" viewBox="0 0 40 40" fill="none" xmlns="http://www.w3.org/2000/svg">
<rect opacity="0.08" width="40" height="40" rx="12" fill="#EB22BD"/>
<path d="M20 29C24.9706 29 29 24.9706 29 20C29 15.0294 24.9706 11 20 11C15.0294 11 11 15.0294 11 20C11 24.9706 15.0294 29 20 29Z" stroke="#EB22BD" stroke-width="2" stroke-linecap="round" stroke-linejoin="round"/>
<path d="M15 16.5L18 19.5" stroke="#EB22BD" stroke-width="2" stroke-linecap="round" stroke-linejoin="round"/>
<path d="M15 19.5L18 16.5" stroke="#EB22BD" stroke-width="2" stroke-linecap="round" stroke-linejoin="round"/>
<path d="M22 16.5L25 19.5" stroke="#EB22BD" stroke-width="2" stroke-linecap="round" stroke-linejoin="round"/>
<path d="M22 19.5L25 16.5" stroke="#EB22BD" stroke-width="2" stroke-linecap="round" stroke-linejoin="round"/>
<path d="M17.5 23C17.8259 23.3326 18.2148 23.5968 18.6441 23.7772C19.0734 23.9576 19.5344 24.0505 20 24.0505C20.4656 24.0505 20.9266 23.9576 21.3559 23.7772C21.7852 23.5968 22.1741 23.3326 22.5 23" stroke="#EB22BD" stroke-width="2" stroke-linecap="round" stroke-linejoin="round"/>
</svg>
