<svg width="40" height="40" viewBox="0 0 40 40" fill="none" xmlns="http://www.w3.org/2000/svg">
<rect opacity="0.08" width="40" height="40" rx="12" fill="#7831EF"/>
<path fill-rule="evenodd" clip-rule="evenodd" d="M19.5271 11.8997C21.7091 9.71273 25.2301 9.31773 27.6621 11.2197C30.5751 13.4977 30.7661 17.7427 28.2351 20.2797L26.8121 21.7047C26.4191 22.0987 25.7831 22.0987 25.3901 21.7047C24.9971 21.3117 24.9971 20.6727 25.3901 20.2797L26.8121 18.8537C28.4671 17.1967 28.3771 14.4417 26.5401 12.9037C24.9131 11.5407 22.4711 11.8007 20.9721 13.3027L19.6991 14.5777C19.3071 14.9717 18.6691 14.9717 18.2771 14.5777C17.8841 14.1847 17.8801 13.5497 18.4541 12.9747L19.5271 11.8997ZM21.293 17.293L17.293 21.293C16.902 21.684 16.902 22.316 17.293 22.707C17.488 22.902 17.744 23 18 23C18.256 23 18.512 22.902 18.707 22.707L22.707 18.707C23.098 18.316 23.098 17.684 22.707 17.293C22.316 16.902 21.684 16.902 21.293 17.293ZM20.2803 25.3965L19.0063 26.6675C17.5053 28.1645 15.0583 28.4225 13.4303 27.0655C11.5913 25.5335 11.5003 22.7875 13.1573 21.1345L14.5823 19.7145C14.9753 19.3225 14.9753 18.6865 14.5823 18.2935C14.1893 17.9025 13.5513 17.9025 13.1573 18.2935L11.8823 19.5665C9.7103 21.7325 9.3293 25.2165 11.2073 27.6405C13.4783 30.5735 17.7383 30.7715 20.2803 28.2375L21.7053 26.8175C22.0983 26.4245 22.0983 25.7895 21.7053 25.3965C21.3113 25.0035 20.6743 25.0035 20.2803 25.3965Z" fill="#7831EF"/>
</svg>
