<svg width="40" height="40" viewBox="0 0 40 40" fill="none" xmlns="http://www.w3.org/2000/svg">
<rect opacity="0.08" width="40" height="40" rx="12" fill="#7831EF"/>
<path fill-rule="evenodd" clip-rule="evenodd" d="M16 18C16.828 18 17.5 17.328 17.5 16.5C17.5 15.672 16.828 15 16 15C15.172 15 14.5 15.672 14.5 16.5C14.5 17.328 15.172 18 16 18ZM26 27H14.561L21.566 21.155C21.812 20.946 22.258 20.947 22.499 21.154L27 24.994V26C27 26.552 26.552 27 26 27ZM14 13H26C26.552 13 27 13.448 27 14V22.364L23.797 19.632C22.807 18.79 21.258 18.79 20.277 19.626L13 25.698V14C13 13.448 13.448 13 14 13ZM26 11H14C12.346 11 11 12.346 11 14V26C11 27.654 12.346 29 14 29H26C27.654 29 29 27.654 29 26V14C29 12.346 27.654 11 26 11Z" fill="#7831EF"/>
</svg>
