<svg width="40" height="40" viewBox="0 0 40 40" fill="none" xmlns="http://www.w3.org/2000/svg">
<rect opacity="0.08" width="40" height="40" rx="12" fill="#EB22BD"/>
<path fill-rule="evenodd" clip-rule="evenodd" d="M19.527 11.8997C21.709 9.71273 25.23 9.31773 27.662 11.2197C30.575 13.4977 30.766 17.7427 28.235 20.2797L26.812 21.7047C26.419 22.0987 25.783 22.0987 25.39 21.7047C24.997 21.3117 24.997 20.6727 25.39 20.2797L26.812 18.8537C28.467 17.1967 28.377 14.4417 26.54 12.9037C24.913 11.5407 22.471 11.8007 20.972 13.3027L19.699 14.5777C19.307 14.9717 18.669 14.9717 18.277 14.5777C17.884 14.1847 17.88 13.5497 18.454 12.9747L19.527 11.8997ZM21.2929 17.293L17.2929 21.293C16.9019 21.684 16.9019 22.316 17.2929 22.707C17.4879 22.902 17.7439 23 17.9999 23C18.2559 23 18.5119 22.902 18.7069 22.707L22.7069 18.707C23.0979 18.316 23.0979 17.684 22.7069 17.293C22.3159 16.902 21.6839 16.902 21.2929 17.293ZM20.2802 25.3965L19.0062 26.6675C17.5052 28.1645 15.0582 28.4225 13.4302 27.0655C11.5912 25.5335 11.5002 22.7875 13.1572 21.1345L14.5822 19.7145C14.9752 19.3225 14.9752 18.6865 14.5822 18.2935C14.1892 17.9025 13.5512 17.9025 13.1572 18.2935L11.8822 19.5665C9.71018 21.7325 9.32918 25.2165 11.2072 27.6405C13.4782 30.5735 17.7382 30.7715 20.2802 28.2375L21.7052 26.8175C22.0982 26.4245 22.0982 25.7895 21.7052 25.3965C21.3112 25.0035 20.6742 25.0035 20.2802 25.3965Z" fill="#EB22BD"/>
</svg>
