<svg width="40" height="40" viewBox="0 0 40 40" fill="none" xmlns="http://www.w3.org/2000/svg">
<rect opacity="0.08" width="40" height="40" rx="12" fill="#F2994A"/>
<path fill-rule="evenodd" clip-rule="evenodd" d="M28.8212 22.0576C28.2982 21.8716 27.7282 22.1446 27.5452 22.6666C26.4172 25.8566 23.3842 27.9996 20.0002 27.9996C15.5892 27.9996 12.0002 24.4116 12.0002 19.9996C12.0002 16.6156 14.1432 13.5826 17.3332 12.4546C17.8542 12.2716 18.1272 11.7006 17.9432 11.1796C17.7592 10.6596 17.1882 10.3856 16.6672 10.5706C12.6792 11.9796 10.0002 15.7686 10.0002 19.9996C10.0002 25.5136 14.4862 29.9996 20.0002 29.9996C24.2312 29.9996 28.0202 27.3216 29.4302 23.3326C29.6142 22.8126 29.3422 22.2416 28.8212 22.0576ZM21.9999 18V12.071C25.0609 12.511 27.4889 14.938 27.9289 18H21.9999ZM20.9999 10C20.4479 10 19.9999 10.447 19.9999 11V19C19.9999 19.553 20.4479 20 20.9999 20H28.9999C29.5519 20 29.9999 19.553 29.9999 19C29.9999 14.037 25.9619 10 20.9999 10Z" fill="#F2994A"/>
</svg>
