<svg width="40" height="40" viewBox="0 0 40 40" fill="none" xmlns="http://www.w3.org/2000/svg">
<rect opacity="0.08" width="40" height="40" rx="12" fill="#F2994A"/>
<path fill-rule="evenodd" clip-rule="evenodd" d="M15 24C15 23.45 15.45 23 16 23C16.55 23 17 23.45 17 24C17 24.55 16.55 25 16 25C15.45 25 15 24.55 15 24ZM20 23H24C24.55 23 25 23.45 25 24C25 24.55 24.55 25 24 25H20C19.45 25 19 24.55 19 24C19 23.45 19.45 23 20 23ZM26 28H14C13.449 28 13 27.551 13 27V21H27V27C27 27.551 26.551 28 26 28ZM14 14H15V15C15 15.55 15.45 16 16 16C16.55 16 17 15.55 17 15V14H23V15C23 15.55 23.45 16 24 16C24.55 16 25 15.55 25 15V14H26C26.551 14 27 14.449 27 15V19H13V15C13 14.449 13.449 14 14 14ZM26 12H25V11C25 10.45 24.55 10 24 10C23.45 10 23 10.45 23 11V12H17V11C17 10.45 16.55 10 16 10C15.45 10 15 10.45 15 11V12H14C12.346 12 11 13.346 11 15V27C11 28.654 12.346 30 14 30H26C27.654 30 29 28.654 29 27V15C29 13.346 27.654 12 26 12Z" fill="#F2994A"/>
</svg>
