<svg width="40" height="40" viewBox="0 0 40 40" fill="none" xmlns="http://www.w3.org/2000/svg">
<rect opacity="0.08" width="40" height="40" rx="12" fill="#56CCF2"/>
<path fill-rule="evenodd" clip-rule="evenodd" d="M22.617 27.552C23.666 26.054 24.757 23.851 24.975 21H27.93C27.547 24.052 25.441 26.57 22.617 27.552ZM12.069 21H15.061C15.267 23.862 16.344 26.056 17.407 27.561C14.57 26.584 12.454 24.061 12.069 21ZM17.438 12.429C16.386 13.927 15.285 16.137 15.065 19H12.069C12.455 15.928 14.586 13.397 17.438 12.429ZM17.079 19C17.385 15.728 19.059 13.45 20.026 12.397C21.026 13.468 22.674 15.725 22.959 19H17.079ZM17.08 21H22.962C22.656 24.277 20.978 26.555 20.012 27.608C18.965 26.498 17.359 24.272 17.08 21ZM27.93 19H24.978C24.773 16.151 23.708 13.964 22.65 12.461C25.458 13.451 27.549 15.96 27.93 19ZM30 20C30 14.496 25.529 10.018 20.028 10.002C20.024 10.002 20.02 10.001 20.015 10.001C20.011 10.001 20.005 10 20 10C14.486 10 10 14.487 10 20C10 25.514 14.486 30 20 30C20.006 30 20.011 29.999 20.015 29.999C20.017 29.999 20.018 30 20.02 30C20.023 30 20.026 29.998 20.028 29.998C25.529 29.983 30 25.504 30 20Z" fill="#56CCF2"/>
</svg>
