<svg width="40" height="40" viewBox="0 0 40 40" fill="none" xmlns="http://www.w3.org/2000/svg">
<rect opacity="0.08" width="40" height="40" rx="12" fill="#EB5857"/>
<path fill-rule="evenodd" clip-rule="evenodd" d="M23 20H21V18C21 17.447 20.552 17 20 17C19.448 17 19 17.447 19 18V21C19 21.553 19.448 22 20 22H23C23.552 22 24 21.553 24 21C24 20.447 23.552 20 23 20ZM20 27.75C16.278 27.75 13.25 24.722 13.25 21C13.25 17.278 16.278 14.25 20 14.25C23.722 14.25 26.75 17.278 26.75 21C26.75 24.722 23.722 27.75 20 27.75ZM20.988 12.058C20.99 12.037 21 12.021 21 12V11H22C22.552 11 23 10.553 23 10C23 9.447 22.552 9 22 9H18C17.448 9 17 9.447 17 10C17 10.553 17.448 11 18 11H19V12C19 12.021 19.01 12.037 19.012 12.058C14.513 12.552 11 16.372 11 21C11 25.963 15.038 30 20 30C24.962 30 29 25.963 29 21C29 16.372 25.487 12.552 20.988 12.058Z" fill="#EB5857"/>
</svg>
