<svg width="40" height="40" viewBox="0 0 40 40" fill="none" xmlns="http://www.w3.org/2000/svg">
<rect opacity="0.08" width="40" height="40" rx="12" fill="#56CCF2"/>
<path fill-rule="evenodd" clip-rule="evenodd" d="M24 19H21V16C21 15.447 20.552 15 20 15C19.448 15 19 15.447 19 16V20C19 20.553 19.448 21 20 21H24C24.553 21 25 20.553 25 20C25 19.447 24.553 19 24 19ZM20 28C15.589 28 12 24.411 12 20C12 15.589 15.589 12 20 12C24.411 12 28 15.589 28 20C28 24.411 24.411 28 20 28ZM20 10C14.486 10 10 14.486 10 20C10 25.514 14.486 30 20 30C25.514 30 30 25.514 30 20C30 14.486 25.514 10 20 10Z" fill="#56CCF2"/>
</svg>
