<svg width="40" height="40" viewBox="0 0 40 40" fill="none" xmlns="http://www.w3.org/2000/svg">
<rect opacity="0.08" width="40" height="40" rx="12" fill="#27AE60"/>
<path fill-rule="evenodd" clip-rule="evenodd" d="M15.207 17.707C14.816 18.098 14.184 18.098 13.793 17.707L10.793 14.707C10.402 14.316 10.402 13.684 10.793 13.293L13.793 10.293C13.988 10.098 14.244 9.99999 14.5 9.99999C14.756 9.99999 15.012 10.098 15.207 10.293C15.598 10.684 15.598 11.316 15.207 11.707L13.914 13H25.91C27.89 13 29.5 14.583 29.5 16.529V19C29.5 19.553 29.053 20 28.5 20C27.947 20 27.5 19.553 27.5 19V16.529C27.5 15.686 26.787 15 25.91 15L13.914 15L15.207 16.293C15.598 16.684 15.598 17.316 15.207 17.707ZM26.0858 27H14.0898C12.1108 27 10.4998 25.417 10.4998 23.471V21C10.4998 20.447 10.9468 20 11.4998 20C12.0528 20 12.4998 20.447 12.4998 21V23.471C12.4998 24.313 13.2128 25 14.0898 25H26.0858L24.7928 23.707C24.4028 23.316 24.4028 22.684 24.7928 22.293C24.9878 22.098 25.2438 22 25.4998 22C25.7558 22 26.0118 22.098 26.2068 22.293L29.2068 25.293C29.5978 25.684 29.5978 26.316 29.2068 26.707L26.2068 29.707C25.8168 30.098 25.1838 30.098 24.7928 29.707C24.4028 29.316 24.4028 28.684 24.7928 28.293L26.0858 27Z" fill="#27AE60"/>
</svg>
