<svg width="40" height="40" viewBox="0 0 40 40" fill="none" xmlns="http://www.w3.org/2000/svg">
<rect opacity="0.08" width="40" height="40" rx="12" fill="#56CCF2"/>
<path fill-rule="evenodd" clip-rule="evenodd" d="M19.9999 22H16.9999C16.4479 22 15.9999 21.552 15.9999 21C15.9999 20.448 16.4479 20 16.9999 20H19.9999C20.5519 20 20.9999 20.448 20.9999 21C20.9999 21.552 20.5519 22 19.9999 22ZM15.9999 25C15.9999 24.448 16.4479 24 16.9999 24H22.9999C23.5529 24 23.9999 24.448 23.9999 25C23.9999 25.552 23.5529 26 22.9999 26H16.9999C16.4479 26 15.9999 25.552 15.9999 25ZM25.4442 28H14.5552C14.2492 28 14.0002 27.776 14.0002 27.5V12.5C14.0002 12.224 14.2492 12 14.5552 12H20.0002V15.15C20.0002 16.722 21.2172 18 22.7142 18H26.0002V27.5C26.0002 27.776 25.7512 28 25.4442 28ZM22.0002 12.978L24.7422 16H22.7142C22.3202 16 22.0002 15.619 22.0002 15.15V12.978ZM27.7402 16.328L22.2962 10.328C22.1062 10.119 21.8382 10 21.5552 10H14.5552C13.1462 10 12.0002 11.122 12.0002 12.5V27.5C12.0002 28.878 13.1462 30 14.5552 30H25.4442C26.8532 30 28.0002 28.878 28.0002 27.5V17C28.0002 16.751 27.9072 16.512 27.7402 16.328Z" fill="#56CCF2"/>
</svg>
