<svg width="40" height="40" viewBox="0 0 40 40" fill="none" xmlns="http://www.w3.org/2000/svg">
<rect opacity="0.08" width="40" height="40" rx="12" fill="#EB22BD"/>
<path fill-rule="evenodd" clip-rule="evenodd" d="M27 26V20C27 19.448 27.447 19 28 19C28.553 19 29 19.448 29 20V26C29 27.654 27.654 29 26 29H14C12.346 29 11 27.654 11 26V14C11 12.346 12.346 11 14 11H20C20.553 11 21 11.448 21 12C21 12.552 20.553 13 20 13H14C13.448 13 13 13.449 13 14V26C13 26.551 13.448 27 14 27H26C26.552 27 27 26.551 27 26ZM25.5781 13.008L23.9951 13C23.4421 12.997 22.9971 12.547 23.0001 11.995C23.0031 11.444 23.4501 11 24.0001 11H24.0051L28.0021 11.02C28.5521 11.023 28.9971 11.469 28.9971 12.019L29.0001 15.999C29.0001 16.552 28.5531 17 28.0011 17H28.0001C27.4481 17 27.0001 16.553 27.0001 16.001L26.9991 14.415L20.7071 20.707C20.5121 20.902 20.2561 21 20.0001 21C19.7441 21 19.4881 20.902 19.2931 20.707C18.9021 20.316 18.9021 19.684 19.2931 19.293L25.5781 13.008Z" fill="#EB22BD"/>
</svg>
