<svg width="40" height="40" viewBox="0 0 40 40" fill="none" xmlns="http://www.w3.org/2000/svg">
<rect opacity="0.08" width="40" height="40" rx="12" fill="#56CCF2"/>
<path fill-rule="evenodd" clip-rule="evenodd" d="M22 15C22 13.897 21.103 13 20 13C18.897 13 18 13.897 18 15C18 16.103 18.897 17 20 17C21.103 17 22 16.103 22 15ZM24 15C24 17.206 22.206 19 20 19C17.794 19 16 17.206 16 15C16 12.794 17.794 11 20 11C22.206 11 24 12.794 24 15ZM13 28C13 24.14 16.141 21 20 21C23.859 21 27 24.14 27 28C27 28.552 26.553 29 26 29C25.447 29 25 28.552 25 28C25 25.243 22.757 23 20 23C17.243 23 15 25.243 15 28C15 28.552 14.553 29 14 29C13.447 29 13 28.552 13 28Z" fill="#56CCF2"/>
</svg>
