<svg width="40" height="40" viewBox="0 0 40 40" fill="none" xmlns="http://www.w3.org/2000/svg">
<rect opacity="0.08" width="40" height="40" rx="12" fill="#7831EF"/>
<path fill-rule="evenodd" clip-rule="evenodd" d="M26 27C25.448 27 25 26.552 25 26C25 25.448 25.448 25 26 25C26.552 25 27 25.448 27 26C27 26.552 26.552 27 26 27ZM13 21C12.448 21 12 20.552 12 20C12 19.448 12.448 19 13 19C13.552 19 14 19.448 14 20C14 20.552 13.552 21 13 21ZM26 13C26.552 13 27 13.448 27 14C27 14.552 26.552 15 26 15C25.448 15 25 14.552 25 14C25 13.448 25.448 13 26 13ZM26 23C25.183 23 24.443 23.33 23.901 23.861L15.966 20.335C15.979 20.224 16 20.114 16 20C16 19.886 15.979 19.776 15.966 19.665L23.901 16.139C24.443 16.67 25.183 17 26 17C27.654 17 29 15.654 29 14C29 12.346 27.654 11 26 11C24.346 11 23 12.346 23 14C23 14.114 23.021 14.224 23.034 14.335L15.099 17.861C14.557 17.33 13.817 17 13 17C11.346 17 10 18.346 10 20C10 21.654 11.346 23 13 23C13.817 23 14.557 22.67 15.099 22.139L23.034 25.665C23.021 25.776 23 25.886 23 26C23 27.654 24.346 29 26 29C27.654 29 29 27.654 29 26C29 24.346 27.654 23 26 23Z" fill="#7831EF"/>
</svg>
