<svg width="40" height="40" viewBox="0 0 40 40" fill="none" xmlns="http://www.w3.org/2000/svg">
<rect opacity="0.08" width="40" height="40" rx="12" fill="#7831EF"/>
<path fill-rule="evenodd" clip-rule="evenodd" d="M15.4951 17.5165C13.4631 19.7155 13.5061 23.2015 15.6241 25.3605C16.6581 26.4175 18.0321 27.0005 19.4961 27.0015H19.5011C20.9681 27.0015 22.3471 26.4185 23.3861 25.3605C25.5421 23.1625 25.5381 19.5875 23.3771 17.3925L20.3911 14.3415C20.0891 16.8235 19.1581 19.0015 17.5001 19.0015C16.9921 19.0015 16.1641 18.7755 15.4951 17.5165ZM19.5011 29.0015H19.4941C17.4881 28.9995 15.6061 28.2045 14.1951 26.7595C11.2811 23.7895 11.2771 18.9565 14.1861 15.9915L15.1691 14.9975C15.4231 14.7435 15.7921 14.6455 16.1411 14.7365C16.4881 14.8305 16.7581 15.1035 16.8481 15.4515C17.0781 16.3405 17.3521 16.7775 17.5031 16.9435C17.8581 16.5695 18.5001 15.0585 18.5001 12.5015C18.5001 12.3545 18.5001 12.2155 18.4921 12.0765C18.4731 11.7815 18.5861 11.4925 18.8001 11.2885C19.1971 10.9115 19.8331 10.9115 20.2141 11.3035L24.8041 15.9925C27.7241 18.9565 27.7291 23.7895 24.8141 26.7605C23.3951 28.2065 21.5091 29.0015 19.5011 29.0015Z" fill="#7831EF"/>
</svg>
