<svg width="40" height="40" viewBox="0 0 40 40" fill="none" xmlns="http://www.w3.org/2000/svg">
<rect opacity="0.08" width="40" height="40" rx="12" fill="#27AE60"/>
<path fill-rule="evenodd" clip-rule="evenodd" d="M17.6982 22L18.4272 18H22.3022L21.5732 22H17.6982ZM28.0002 22H23.6982L24.4272 18H28.0002C28.5502 18 29.0002 17.55 29.0002 17C29.0002 16.45 28.5502 16 28.0002 16H24.7902L25.4842 12.189C25.5842 11.641 25.2022 11.112 24.6352 11.016C24.0682 10.919 23.5232 11.289 23.4232 11.838L22.6652 16H18.7902L19.4842 12.189C19.5842 11.641 19.2022 11.112 18.6352 11.016C18.0682 10.919 17.5232 11.289 17.4232 11.838L16.6652 16H12.0002C11.4502 16 11.0002 16.45 11.0002 17C11.0002 17.55 11.4502 18 12.0002 18H16.3022L15.5732 22H12.0002C11.4502 22 11.0002 22.45 11.0002 23C11.0002 23.55 11.4502 24 12.0002 24H15.2092L14.5152 27.811C14.4162 28.359 14.7982 28.888 15.3652 28.984C15.9312 29.081 16.4772 28.711 16.5762 28.162L17.3342 24H21.2092L20.5152 27.811C20.4162 28.359 20.7982 28.888 21.3652 28.984C21.9312 29.081 22.4772 28.711 22.5762 28.162L23.3342 24H28.0002C28.5502 24 29.0002 23.55 29.0002 23C29.0002 22.45 28.5502 22 28.0002 22Z" fill="#27AE60"/>
</svg>
