<svg width="24" height="24" viewBox="0 0 24 24" fill="none" xmlns="http://www.w3.org/2000/svg">
<path d="M12 21C16.9706 21 21 16.9706 21 12C21 7.02944 16.9706 3 12 3C7.02944 3 3 7.02944 3 12C3 16.9706 7.02944 21 12 21Z" stroke="#8F9BB3" stroke-width="2" stroke-linecap="round" stroke-linejoin="round"/>
<path d="M14.5 9C13.9949 8.49083 13.3719 8.15907 12.7058 8.04453C12.0397 7.92999 11.3589 8.03753 10.745 8.35425C10.1311 8.67097 9.61014 9.18342 9.24475 9.83009C8.87936 10.4768 8.685 11.2302 8.685 12C8.685 12.7698 8.87936 13.5232 9.24475 14.1699C9.61014 14.8166 10.1311 15.329 10.745 15.6458C11.3589 15.9625 12.0397 16.07 12.7058 15.9555C13.3719 15.8409 13.9949 15.5092 14.5 15" stroke="#8F9BB3" stroke-width="2" stroke-linecap="round" stroke-linejoin="round"/>
</svg>
