<svg width="384" height="320" viewBox="0 0 384 320" fill="none" xmlns="http://www.w3.org/2000/svg">
<rect width="176" height="320" rx="24" fill="#FFF2F2"/>
<g clip-path="url(#clip0_630_3195)">
<path d="M143.298 164.579L139.346 122.752L127.561 123.158L136.89 164.462C136.129 165.1 135.581 165.954 135.319 166.912C135.058 167.869 135.095 168.883 135.427 169.818C135.758 170.753 136.368 171.565 137.174 172.145C137.98 172.725 138.944 173.046 139.938 173.064C140.931 173.082 141.907 172.797 142.733 172.247C143.56 171.696 144.199 170.907 144.564 169.985C144.93 169.062 145.004 168.05 144.778 167.084C144.552 166.118 144.035 165.244 143.298 164.579L143.298 164.579Z" fill="#FFB8B8"/>
<path d="M367.346 257.804C367.237 261.855 366.557 265.87 365.327 269.732C365.299 269.821 365.269 269.91 365.24 269.999H357.704C357.712 269.918 357.72 269.829 357.728 269.732C358.23 263.965 361.127 228.871 357.664 222.869C357.967 223.356 367.928 239.482 367.346 257.804Z" fill="#F0F0F0"/>
<path d="M366.136 269.44C366.005 269.628 365.867 269.815 365.727 270H353.906C353.996 269.84 354.1 269.653 354.22 269.44C356.173 265.921 361.953 255.403 367.319 244.495C373.085 232.774 378.375 220.609 377.929 216.206C378.066 217.199 382.055 247.471 366.136 269.44Z" fill="#F0F0F0"/>
<path d="M106.495 251.659C106.656 257.692 107.669 263.672 109.502 269.423C109.542 269.557 109.588 269.688 109.631 269.822H120.852C120.841 269.702 120.828 269.568 120.817 269.423C120.069 260.836 115.755 208.572 120.913 199.634C120.461 200.359 105.623 224.374 106.495 251.659Z" fill="#F0F0F0"/>
<path d="M107.337 269.423C107.43 269.557 107.528 269.69 107.628 269.821H116.046C115.982 269.708 115.908 269.574 115.822 269.423C114.432 266.917 110.315 259.426 106.494 251.659C102.39 243.313 98.6212 234.65 98.9386 231.515C98.8407 232.222 95.9992 253.779 107.337 269.423Z" fill="#F0F0F0"/>
<path d="M350.419 226.152H233.273C232.697 226.151 232.146 225.923 231.739 225.517C231.333 225.111 231.104 224.56 231.103 223.986V194.975C231.104 194.401 231.333 193.85 231.739 193.444C232.146 193.038 232.697 192.81 233.273 192.809H350.419C350.994 192.81 351.546 193.038 351.952 193.444C352.359 193.85 352.588 194.401 352.589 194.975V223.986C352.588 224.56 352.359 225.11 351.953 225.516C351.546 225.923 350.995 226.151 350.419 226.152ZM233.273 193.674C232.928 193.674 232.598 193.811 232.354 194.055C232.11 194.298 231.973 194.628 231.972 194.972V223.983C231.973 224.327 232.11 224.657 232.354 224.9C232.598 225.143 232.928 225.28 233.273 225.281H350.419C350.764 225.28 351.094 225.144 351.338 224.9C351.582 224.657 351.719 224.327 351.72 223.983V194.975C351.719 194.631 351.582 194.301 351.338 194.057C351.094 193.814 350.764 193.677 350.419 193.676L233.273 193.674Z" fill="#3F3D56"/>
<path d="M222.215 261.167C227.095 261.167 231.052 257.217 231.052 252.345C231.052 247.472 227.095 243.523 222.215 243.523C217.334 243.523 213.378 247.472 213.378 252.345C213.378 257.217 217.334 261.167 222.215 261.167Z" fill="#E6E6E6"/>
<path d="M242.624 246.768C242.234 246.768 241.859 246.923 241.583 247.198C241.307 247.474 241.152 247.848 241.152 248.238C241.152 248.628 241.307 249.002 241.583 249.278C241.859 249.554 242.234 249.708 242.624 249.708H312.057C312.251 249.709 312.442 249.671 312.621 249.598C312.8 249.524 312.962 249.416 313.099 249.28C313.236 249.144 313.345 248.982 313.42 248.803C313.494 248.625 313.532 248.434 313.533 248.241C313.533 248.048 313.496 247.857 313.422 247.678C313.348 247.5 313.24 247.337 313.104 247.201C312.967 247.064 312.805 246.955 312.626 246.881C312.448 246.807 312.256 246.768 312.063 246.768H242.624Z" fill="#E6E6E6"/>
<path d="M242.624 255.59C242.234 255.59 241.859 255.744 241.582 256.019C241.305 256.294 241.149 256.668 241.149 257.058C241.148 257.448 241.302 257.822 241.578 258.098C241.854 258.374 242.228 258.53 242.618 258.531H272.502C272.892 258.531 273.267 258.376 273.543 258.1C273.819 257.825 273.974 257.451 273.974 257.061C273.974 256.671 273.819 256.297 273.543 256.021C273.267 255.745 272.892 255.59 272.502 255.59H242.624Z" fill="#E6E6E6"/>
<path d="M251.474 218.162C256.355 218.162 260.311 214.212 260.311 209.34C260.311 204.467 256.355 200.518 251.474 200.518C246.594 200.518 242.638 204.467 242.638 209.34C242.638 214.212 246.594 218.162 251.474 218.162Z" fill="#E6E6E6"/>
<path d="M271.884 203.763C271.493 203.763 271.119 203.918 270.842 204.194C270.566 204.469 270.411 204.843 270.411 205.233C270.411 205.623 270.566 205.997 270.842 206.273C271.119 206.549 271.493 206.704 271.884 206.704H341.317C341.707 206.704 342.082 206.549 342.358 206.273C342.634 205.997 342.79 205.623 342.79 205.233C342.79 204.843 342.634 204.469 342.358 204.194C342.082 203.918 341.707 203.763 341.317 203.763H271.884Z" fill="#E6E6E6"/>
<path d="M271.884 212.585C271.493 212.585 271.119 212.74 270.842 213.016C270.566 213.292 270.411 213.666 270.411 214.056C270.411 214.446 270.566 214.82 270.842 215.095C271.119 215.371 271.493 215.526 271.884 215.526H301.761C302.152 215.526 302.526 215.371 302.802 215.095C303.079 214.82 303.234 214.446 303.234 214.056C303.234 213.666 303.079 213.292 302.802 213.016C302.526 212.74 302.152 212.585 301.761 212.585H271.884Z" fill="#E6E6E6"/>
<path d="M327.662 154.342H210.515C209.94 154.341 209.389 154.112 208.982 153.706C208.575 153.3 208.347 152.75 208.346 152.176V52.1657C208.347 51.5915 208.575 51.0411 208.982 50.6351C209.389 50.2292 209.94 50.0008 210.515 50H327.662C328.237 50.0008 328.788 50.2292 329.195 50.6351C329.602 51.0411 329.83 51.5915 329.831 52.1657V152.175C329.831 152.75 329.602 153.3 329.195 153.706C328.788 154.112 328.237 154.341 327.662 154.341V154.342ZM210.515 50.8646C210.17 50.8653 209.84 51.0023 209.596 51.2456C209.353 51.489 209.215 51.8187 209.215 52.1628V152.175C209.215 152.52 209.353 152.849 209.596 153.093C209.84 153.336 210.17 153.473 210.515 153.474H327.662C328.007 153.473 328.337 153.336 328.581 153.093C328.825 152.849 328.962 152.52 328.962 152.175V52.1657C328.962 51.8216 328.824 51.4918 328.581 51.2485C328.337 51.0052 328.007 50.8682 327.662 50.8674L210.515 50.8646Z" fill="#3F3D56"/>
<path d="M228.717 76.4086C233.597 76.4086 237.554 72.4588 237.554 67.5865C237.554 62.7142 233.597 58.7644 228.717 58.7644C223.837 58.7644 219.88 62.7142 219.88 67.5865C219.88 72.4588 223.837 76.4086 228.717 76.4086Z" fill="#FF3D71"/>
<path d="M249.126 61.7051C248.736 61.7051 248.361 61.86 248.085 62.1357C247.809 62.4114 247.654 62.7854 247.654 63.1754C247.654 63.5653 247.809 63.9393 248.085 64.215C248.361 64.4907 248.736 64.6456 249.126 64.6456H318.559C318.95 64.6456 319.325 64.4907 319.601 64.215C319.877 63.9393 320.032 63.5653 320.032 63.1754C320.032 62.7854 319.877 62.4114 319.601 62.1357C319.325 61.86 318.95 61.7051 318.559 61.7051H249.126Z" fill="#CCCCCC"/>
<path d="M249.126 70.5276C248.736 70.5276 248.361 70.6825 248.085 70.9582C247.809 71.234 247.654 71.6079 247.654 71.9979C247.654 72.3878 247.809 72.7618 248.085 73.0375C248.361 73.3133 248.736 73.4682 249.126 73.4682H279.004C279.394 73.4682 279.769 73.3133 280.045 73.0375C280.321 72.7618 280.476 72.3878 280.476 71.9979C280.476 71.6079 280.321 71.234 280.045 70.9582C279.769 70.6825 279.394 70.5276 279.004 70.5276H249.126Z" fill="#CCCCCC"/>
<path d="M178.764 261.504H169.824L164.541 187.26L164.338 206.125L144.831 258.056L137.11 251.97L149.911 200.242L143.815 171.437H183.641L178.764 261.504Z" fill="#2F2E41"/>
<path d="M164.541 79.7472C170.376 79.7472 175.107 75.0245 175.107 69.1988C175.107 63.3731 170.376 58.6504 164.541 58.6504C158.706 58.6504 153.975 63.3731 153.975 69.1988C153.975 75.0245 158.706 79.7472 164.541 79.7472Z" fill="#FFB8B8"/>
<path d="M184.861 177.117C167.598 172.695 151.401 169.715 141.378 175.089C143.133 156.665 141.102 133.147 135.079 108.567C133.122 100.583 134.449 93.3889 141.581 89.2815L151.131 83.8044L165.761 84.2102L173.394 88.4263C177.126 90.2883 180.148 93.3155 182.001 97.0483C183.853 100.781 184.434 105.015 183.657 109.108C179.555 130.654 181.771 153.908 184.861 177.117Z" fill="#3F3D56"/>
<path d="M145.441 125.592L126.341 124.375C127.834 105.617 132.08 95.3625 138.533 91.9185L145.441 100.033V125.592Z" fill="#3F3D56"/>
<path d="M355.495 141.367H238.347C237.772 141.367 237.221 141.138 236.814 140.732C236.408 140.326 236.179 139.776 236.178 139.202V87.8769C236.179 87.3027 236.408 86.7522 236.814 86.3462C237.221 85.9402 237.772 85.7118 238.347 85.7112H355.495C356.07 85.7118 356.621 85.9402 357.028 86.3462C357.435 86.7522 357.663 87.3027 357.664 87.8769V139.202C357.663 139.776 357.435 140.326 357.028 140.732C356.621 141.138 356.07 141.367 355.495 141.367Z" fill="#FF3D71"/>
<path d="M262.205 103.601C261.814 103.601 261.439 103.755 261.163 104.031C260.887 104.307 260.732 104.681 260.732 105.071C260.732 105.461 260.887 105.835 261.163 106.111C261.439 106.386 261.814 106.541 262.205 106.541H331.638C332.029 106.541 332.403 106.386 332.679 106.111C332.956 105.835 333.111 105.461 333.111 105.071C333.111 104.681 332.956 104.307 332.679 104.031C332.403 103.755 332.029 103.601 331.638 103.601H262.205Z" fill="white"/>
<path d="M262.205 112.12C261.814 112.12 261.439 112.275 261.163 112.551C260.887 112.827 260.732 113.201 260.732 113.591C260.732 113.981 260.887 114.355 261.163 114.63C261.439 114.906 261.814 115.061 262.205 115.061H331.638C332.029 115.061 332.403 114.906 332.679 114.63C332.956 114.355 333.111 113.981 333.111 113.591C333.111 113.201 332.956 112.827 332.679 112.551C332.403 112.275 332.029 112.12 331.638 112.12H262.205Z" fill="white"/>
<path d="M262.205 120.537C261.814 120.537 261.439 120.692 261.163 120.968C260.887 121.243 260.732 121.617 260.732 122.007C260.732 122.397 260.887 122.771 261.163 123.047C261.439 123.323 261.814 123.478 262.205 123.478H292.082C292.472 123.478 292.847 123.323 293.123 123.047C293.399 122.771 293.555 122.397 293.555 122.007C293.555 121.617 293.399 121.243 293.123 120.968C292.847 120.692 292.472 120.537 292.082 120.537H262.205Z" fill="white"/>
<path d="M168.144 55.3185C167.159 55.2154 166.231 55.7384 165.263 55.9522C163.271 56.3879 161.231 55.4848 159.184 55.4925C157.424 55.5924 155.712 56.1025 154.186 56.9819C152.951 57.5645 151.824 58.352 150.853 59.311C149.877 60.2855 149.309 61.5943 149.263 62.9717C149.399 63.7608 149.374 64.5689 149.192 65.3484C148.986 65.7414 148.741 66.113 148.46 66.4576C148.207 66.8636 148.045 67.3199 147.986 67.7946C147.927 68.2693 147.973 68.7512 148.119 69.2067C148.529 70.1091 149.084 70.9386 149.762 71.6628C151.079 73.3502 151.905 75.3706 153.087 77.1614C153.603 77.9387 154.181 78.6726 154.817 79.3559C154.921 79.4769 155.047 79.5764 155.19 79.6488C155.33 79.6979 155.478 79.7194 155.626 79.7121C158.134 79.7835 160.729 79.8387 163.038 78.8564C163.778 78.6004 164.406 78.0965 164.816 77.4304C165.149 76.5165 165.209 75.5258 164.99 74.5782C164.885 73.5229 164.909 72.4588 165.062 71.4093C165.072 71.0548 165.217 70.7177 165.468 70.4664C165.657 70.3489 165.874 70.2833 166.097 70.2762C166.32 70.2691 166.541 70.3207 166.737 70.4258C167.13 70.6321 167.558 70.7611 167.999 70.806C168.865 70.806 169.412 69.8233 169.587 68.9677C169.491 68.1988 169.605 67.4184 169.917 66.7087C170.228 65.999 170.726 65.3863 171.356 64.935C171.951 64.1818 172.359 63.2992 172.548 62.359C172.737 61.4188 172.701 60.4474 172.444 59.5236C171.873 57.743 170.128 55.5165 168.144 55.3185Z" fill="#2F2E41"/>
<path d="M321.16 269.157H204.013C203.438 269.156 202.887 268.928 202.48 268.522C202.073 268.116 201.845 267.565 201.844 266.991V237.98C201.844 237.406 202.073 236.855 202.48 236.449C202.886 236.043 203.438 235.815 204.013 235.814H321.16C321.735 235.815 322.286 236.043 322.693 236.449C323.1 236.855 323.328 237.406 323.329 237.98V266.991C323.328 267.565 323.1 268.115 322.693 268.521C322.286 268.927 321.735 269.156 321.16 269.156V269.157ZM204.013 236.679C203.668 236.68 203.338 236.817 203.094 237.06C202.851 237.303 202.713 237.633 202.713 237.977V266.988C202.713 267.332 202.851 267.662 203.094 267.905C203.338 268.148 203.668 268.285 204.013 268.286H321.16C321.504 268.286 321.835 268.149 322.079 267.905C322.322 267.662 322.46 267.332 322.46 266.988V237.98C322.459 237.636 322.322 237.306 322.078 237.063C321.835 236.819 321.504 236.682 321.16 236.682L204.013 236.679Z" fill="#3F3D56"/>
<path d="M188.407 162.956L184.454 121.13L172.669 121.535L181.998 162.839C181.237 163.477 180.689 164.332 180.428 165.289C180.166 166.246 180.204 167.26 180.535 168.195C180.867 169.13 181.476 169.942 182.282 170.522C183.088 171.102 184.053 171.423 185.046 171.441C186.04 171.459 187.015 171.174 187.842 170.624C188.669 170.073 189.307 169.284 189.673 168.362C190.038 167.439 190.113 166.427 189.886 165.461C189.66 164.495 189.144 163.621 188.407 162.956L188.407 162.956Z" fill="#FFB8B8"/>
<path d="M188.518 121.941L170.637 125.998L169.824 96.7871L179.984 97.1928L188.518 121.941Z" fill="#3F3D56"/>
<path d="M169.541 260.774L182.511 260.773H182.511C184.703 260.773 186.805 261.643 188.355 263.19C189.905 264.737 190.776 266.836 190.776 269.024V269.293L169.542 269.293L169.541 260.774Z" fill="#2F2E41"/>
<path d="M136.967 250.522L147.87 257.534L147.87 257.534C149.713 258.72 151.009 260.587 151.472 262.726C151.936 264.865 151.529 267.1 150.342 268.94L150.197 269.165L132.345 257.684L136.967 250.522Z" fill="#2F2E41"/>
<path d="M384 269.188H84V270H384V269.188Z" fill="#CACACA"/>
</g>
<defs>
<clipPath id="clip0_630_3195">
<rect width="300" height="220" fill="white" transform="translate(84 50)"/>
</clipPath>
</defs>
</svg>
